<svg width="48" height="31" viewBox="0 0 48 31" fill="none" xmlns="http://www.w3.org/2000/svg">
<path d="M40.1225 30.6007V19.1532H38.0596V16.9043H45.2121V19.1532H43.1661V30.6007H40.1225Z" fill="black"/>
<path d="M29.9706 30.6007V16.9043H33.5384C34.1246 16.9043 34.6769 16.9494 35.1955 17.0396C35.7253 17.1298 36.1931 17.3045 36.5989 17.5638C37.0047 17.8118 37.3204 18.1725 37.5458 18.6459C37.7826 19.1081 37.9009 19.7225 37.9009 20.489C37.9009 21.0414 37.8164 21.5092 37.6473 21.8925C37.4895 22.2645 37.2584 22.5632 36.954 22.7887C36.6609 23.0141 36.3058 23.1663 35.8887 23.2452C36.4186 23.3129 36.8638 23.4876 37.2246 23.7694C37.5853 24.0399 37.8558 24.4063 38.0362 24.8685C38.2278 25.3307 38.3236 25.8887 38.3236 26.5425C38.3236 27.2527 38.2278 27.867 38.0362 28.3856C37.8558 28.8929 37.5909 29.31 37.2415 29.6369C36.892 29.9638 36.458 30.2061 35.9395 30.364C35.4322 30.5218 34.846 30.6007 34.1809 30.6007H29.9706ZM32.9973 28.487H33.6398C34.3049 28.487 34.7615 28.3179 35.0095 27.9798C35.2687 27.6416 35.3984 27.1456 35.3984 26.4918C35.3984 25.9732 35.342 25.5618 35.2293 25.2574C35.1166 24.953 34.9306 24.7332 34.6713 24.5979C34.412 24.4514 34.0626 24.3781 33.6229 24.3781H32.9973V28.487ZM32.9973 22.3828H33.5891C34.0513 22.3828 34.4007 22.3152 34.6375 22.1799C34.8742 22.0334 35.032 21.8248 35.1109 21.5543C35.2011 21.2838 35.2462 20.9568 35.2462 20.5736C35.2462 20.2128 35.1786 19.9141 35.0433 19.6774C34.9193 19.4294 34.7277 19.2434 34.4684 19.1194C34.2204 18.9954 33.9047 18.9334 33.5215 18.9334H32.9973V22.3828Z" fill="black"/>
<path d="M20.6743 30.6007L23.2614 16.9043H26.7108L29.2641 30.6007H26.4741L26.0176 27.7092H24.0054L23.5319 30.6007H20.6743ZM24.2759 25.8999H25.7301L25.003 20.5567L24.2759 25.8999Z" fill="black"/>
<path d="M11.8713 30.6007V16.9043H15.6421C16.5664 16.9043 17.3668 17.0058 18.0431 17.2087C18.7195 17.4116 19.2437 17.7779 19.6157 18.3078C19.9989 18.8263 20.1906 19.5647 20.1906 20.5228C20.1906 21.0865 20.1455 21.5881 20.0553 22.0278C19.9651 22.4674 19.796 22.8507 19.548 23.1776C19.3113 23.4932 18.9675 23.7581 18.5166 23.9723L20.3935 30.6007H17.2653L15.7604 24.4627H14.8981V30.6007H11.8713ZM14.8981 22.721H15.7435C16.1719 22.721 16.5044 22.6478 16.7411 22.5012C16.9779 22.3434 17.1413 22.1236 17.2315 21.8418C17.333 21.5487 17.3837 21.1992 17.3837 20.7934C17.3837 20.2072 17.2766 19.7507 17.0624 19.4238C16.8482 19.0968 16.4537 18.9334 15.8788 18.9334H14.8981V22.721Z" fill="black"/>
<path d="M34.6104 0.600586C35.1229 1.25844 35.963 3.0532 35.2275 4.9707C34.9373 5.72735 34.4843 6.34228 33.9951 6.82812C39.0806 5.98351 43.9352 4.63586 47.0947 4.5332L47.1865 10.168C44.8173 10.2449 41.4614 9.81804 37.7744 9.73145C38.116 10.0103 38.4394 10.3463 38.7227 10.752C40.0898 12.7099 39.9152 15.0795 39.6572 16.0195C38.7509 15.9649 36.541 15.3521 34.9492 13.3359C33.9424 12.0607 33.7211 10.7725 33.791 9.80273C33.1792 9.84401 32.5645 9.90126 31.9502 9.97852C30.6625 10.1405 29.3836 10.3196 28.1357 10.5156C28.3699 10.7265 28.5933 10.9694 28.792 11.2539C29.9677 12.9378 29.8175 14.9755 29.5957 15.7842C28.8162 15.7372 26.9159 15.2096 25.5469 13.4756C24.9078 12.666 24.6376 11.8506 24.5635 11.1436C22.5233 11.5472 20.6452 12.0063 19.0479 12.5225C19.2133 12.6412 19.376 12.7741 19.5322 12.9248C21.0108 14.3505 21.2571 16.3797 21.1953 17.2158C20.4217 17.3201 18.4543 17.1691 16.7764 15.7314C16.1377 15.1842 15.7391 14.5852 15.5 14.0146C9.57363 17.1749 6.34321 22.4443 5.0791 24.6113L0.5 21.9346C1.61626 20.021 5.00294 16.8988 9.52734 14.0654C9.13709 13.2587 8.81649 12.1575 8.90527 10.874C9.05778 8.67012 10.4769 7.58024 11.168 7.31055C11.8213 7.82855 13.0626 9.37392 12.8008 11.4111C12.7612 11.7185 12.6907 12.0105 12.6025 12.2881C13.6514 11.7302 14.7404 11.1991 15.8584 10.71C17.4168 10.0282 19.3501 9.43996 21.4922 8.92969C21.1775 8.03762 20.9586 6.74033 21.3193 5.2998C21.8563 3.15633 23.4464 2.33241 24.1738 2.18848C24.7262 2.81338 25.6767 4.55241 25.0615 6.51172C24.8283 7.25463 24.4375 7.87712 24.001 8.38184C26.4092 7.90443 28.9816 7.51227 31.5225 7.19141C31.2585 6.28039 31.1151 4.95859 31.5693 3.52832C32.2383 1.42268 33.8754 0.699132 34.6104 0.600586Z" fill="#009655"/>
</svg>
